<?xml version="1.0" encoding="UTF-8" standalone="no"?>
<!-- Created with Inkscape (http://www.inkscape.org/) -->

<svg
   width="210mm"
   height="297mm"
   viewBox="0 0 210 297"
   version="1.1"
   id="svg103"
   inkscape:version="1.1 (c4e8f9e, 2021-05-24)"
   sodipodi:docname="icon.svg"
   xmlns:inkscape="http://www.inkscape.org/namespaces/inkscape"
   xmlns:sodipodi="http://sodipodi.sourceforge.net/DTD/sodipodi-0.dtd"
   xmlns="http://www.w3.org/2000/svg"
   xmlns:svg="http://www.w3.org/2000/svg">
  <sodipodi:namedview
     id="namedview105"
     pagecolor="#ffffff"
     bordercolor="#666666"
     borderopacity="1.0"
     inkscape:pageshadow="2"
     inkscape:pageopacity="0.0"
     inkscape:pagecheckerboard="0"
     inkscape:document-units="mm"
     showgrid="false"
     inkscape:zoom="0.77593294"
     inkscape:cx="375.67679"
     inkscape:cy="543.21705"
     inkscape:window-width="1312"
     inkscape:window-height="1051"
     inkscape:window-x="0"
     inkscape:window-y="38"
     inkscape:window-maximized="0"
     inkscape:current-layer="layer1" />
  <defs
     id="defs100">
    <inkscape:path-effect
       effect="mirror_symmetry"
       start_point="173.87253,175.36803"
       end_point="173.87253,248.10082"
       center_point="173.87253,211.73442"
       id="path-effect22896"
       is_visible="true"
       lpeversion="1.1"
       mode="free"
       discard_orig_path="false"
       fuse_paths="false"
       oposite_fuse="false"
       split_items="false"
       split_open="false" />
  </defs>
  <g
     inkscape:label="Layer 1"
     inkscape:groupmode="layer"
     id="layer1">
    <path
       id="path11743-1-2-5-2"
       style="fill:#000000;stroke:#000000;stroke-width:0.264583px;stroke-linecap:butt;stroke-linejoin:miter;stroke-opacity:1"
       d="m 167.49959,207.24034 c -0.088,-0.16783 -0.87096,-2.62506 -0.87096,-2.62506 l 0.27165,-0.6112 2.60327,1.19977 4.55557,8.48534 -0.30974,1.53585 -2.44423,-4.409 z m 0.17035,1.90238 2.44481,2.49009 c 0,0 2.89756,4.61799 2.76174,4.79909 -0.13582,0.1811 0.99604,16.70626 0.99604,16.52515 0,-0.18109 -5.4782,-16.34405 -5.4782,-16.34405 z m -6.85696,4.89538 c 2.63855,11.71058 11.56549,13.48604 11.39692,34.06272 l -19.20829,-9.66817 c 6.4841,-7.67835 9.47095,-7.49824 5.69846,-20.57553 -0.16014,-0.55511 -0.25089,-1.2318 -0.17734,-2.14618 z m 13.05871,-38.6711 c 0,0 -2.61163,3.68181 -3.77797,5.18788 -1.16633,1.50607 -3.22271,3.87305 -3.22271,3.87305 0,0 0.64839,2.65947 0.79893,5.88065 0.15053,3.22118 -0.19741,3.85984 -2.74642,6.05179 -2.54902,2.19194 -3.96318,1.95357 -5.40297,12.32966 0,0 -1.04161,4.27388 -0.54329,4.61799 0.27892,0.1926 2.17317,-2.08262 2.17317,-2.08262 0.42351,1.19537 1.05166,3.18813 1.72043,4.88959 0.66876,1.70146 4.78234,9.07865 7.0358,12.30318 0.60001,0.85856 1.38523,0.6453 1.38523,0.6453 l -4.09667,-12.19208 -1.06461,-9.99238 -0.90549,-2.17317 1.11311,-2.15669 3.77652,1.34175 3.75901,7.55482 m 6.37171,-4.20538 c 0.088,-0.16783 0.87096,-2.62506 0.87096,-2.62506 l -0.27165,-0.6112 -2.60327,1.19977 -4.55557,8.48534 0.30974,1.53585 2.44423,-4.409 z m -0.17035,1.90238 -2.44481,2.49009 c 0,0 -2.89756,4.61799 -2.76174,4.79909 0.13582,0.1811 -0.99604,16.70626 -0.99604,16.52515 0,-0.18109 5.4782,-16.34405 5.4782,-16.34405 z m 6.85696,4.89538 c -2.63855,11.71058 -11.56549,13.48604 -11.39692,34.06272 l 19.20829,-9.66817 c -6.4841,-7.67835 -9.47095,-7.49824 -5.69846,-20.57553 0.16014,-0.55511 0.25089,-1.2318 0.17734,-2.14618 z M 173.87337,175.367 c 0,0 2.61163,3.68181 3.77797,5.18788 1.16633,1.50607 3.22271,3.87305 3.22271,3.87305 0,0 -0.64839,2.65947 -0.79893,5.88065 -0.15053,3.22118 0.19741,3.85984 2.74642,6.05179 2.54902,2.19194 3.96318,1.95357 5.40297,12.32966 0,0 1.04161,4.27388 0.54329,4.61799 -0.27892,0.1926 -2.17317,-2.08262 -2.17317,-2.08262 -0.42351,1.19537 -1.05166,3.18813 -1.72043,4.88959 -0.66876,1.70146 -4.78234,9.07865 -7.0358,12.30318 -0.60001,0.85856 -1.38523,0.6453 -1.38523,0.6453 l 4.09667,-12.19208 1.06461,-9.99238 0.90549,-2.17317 -1.11311,-2.15669 -3.77652,1.34175 -3.75901,7.55482"
       inkscape:path-effect="#path-effect22896"
       inkscape:original-d="m 167.49959,207.24034 c -0.088,-0.16783 -0.87096,-2.62506 -0.87096,-2.62506 l 0.27165,-0.6112 2.60327,1.19977 4.55557,8.48534 -0.30974,1.53585 -2.44423,-4.409 z m 0.17035,1.90238 2.44481,2.49009 c 0,0 2.89756,4.61799 2.76174,4.79909 -0.13582,0.1811 0.99604,16.70626 0.99604,16.52515 0,-0.18109 -5.4782,-16.34405 -5.4782,-16.34405 z m -6.85696,4.89538 c 2.63855,11.71058 11.56549,13.48604 11.39692,34.06272 l -19.20829,-9.66817 c 6.4841,-7.67835 9.47095,-7.49824 5.69846,-20.57553 -0.16014,-0.55511 -0.25089,-1.2318 -0.17734,-2.14618 z m 13.05871,-38.6711 c 0,0 -2.61163,3.68181 -3.77797,5.18788 -1.16633,1.50607 -3.22271,3.87305 -3.22271,3.87305 0,0 0.64839,2.65947 0.79893,5.88065 0.15053,3.22118 -0.19741,3.85984 -2.74642,6.05179 -2.54902,2.19194 -3.96318,1.95357 -5.40297,12.32966 0,0 -1.04161,4.27388 -0.54329,4.61799 0.27892,0.1926 2.17317,-2.08262 2.17317,-2.08262 0.42351,1.19537 1.05166,3.18813 1.72043,4.88959 0.66876,1.70146 4.78234,9.07865 7.0358,12.30318 0.60001,0.85856 1.38523,0.6453 1.38523,0.6453 l -4.09667,-12.19208 -1.06461,-9.99238 -0.90549,-2.17317 1.11311,-2.15669 3.77652,1.34175 3.75901,7.55482"
       sodipodi:nodetypes="ccccccccccsscccccscccscszcscssccccccc"
       transform="matrix(4.988021,0,0,4.0494451,-761.91474,-709.10133)" />
  </g>
</svg>
